<svg xmlns="http://www.w3.org/2000/svg" width="950" height="474" fill="none"><path fill="#fff" d="M0 0h950v474H0z"/><path fill="#ACE1FF" stroke="#8FA6C8" stroke-width="2" d="m229.423 227.974.284.526H254.783l.284-.526c1.956-3.629 4.382-6.362 7.287-8.19 2.9-1.826 6.332-2.784 10.359-2.784 4.022 0 7.326.956 10.164 2.779 2.849 1.83 5.288 4.574 7.507 8.239l.292.482H315.719l.283-.526c1.957-3.629 4.383-6.362 7.288-8.19 2.9-1.826 6.332-2.784 10.359-2.784 10.481 0 18.979 8.506 18.979 19s-8.498 19-18.979 19c-7.963 0-14.783-4.91-17.6-11.875l-.253-.625h-25.231l-.252.625c-2.817 6.965-9.637 11.875-17.6 11.875-7.963 0-14.783-4.91-17.6-11.875l-.252-.625H229.629l-.252.625C226.56 250.09 219.74 255 211.777 255c-10.481 0-18.979-8.506-18.979-19s8.498-19 18.979-19c4.027 0 7.459.958 10.359 2.784 2.905 1.828 5.331 4.561 7.287 8.19ZM261.697 184.932l.272.568H283.433l.281-.537c2.721-5.212 7.901-8.963 14.472-8.963 8.55 0 15.483 6.939 15.483 15.5s-6.933 15.5-15.483 15.5c-6.2 0-11.552-3.649-14.025-8.924l-.269-.576H261.534l-.27.576c-2.472 5.275-7.824 8.924-14.024 8.924-8.55 0-15.483-6.939-15.483-15.5S238.69 176 247.24 176c6.611 0 11.754 3.286 14.457 8.932ZM261.667 275.863l.248.637H283.51l.249-.637c2.253-5.775 7.865-9.863 14.427-9.863 8.55 0 15.483 6.939 15.483 15.5s-6.933 15.5-15.483 15.5c-6.2 0-11.552-3.649-14.025-8.924l-.269-.576H261.534l-.27.576c-2.472 5.275-7.824 8.924-14.024 8.924-8.55 0-15.483-6.939-15.483-15.5S238.69 266 247.24 266c6.562 0 12.174 4.088 14.427 9.863Z"/><path fill="#1A4687" d="M408.596 232.989V256h-9.256v-52.364h9.051v19.765h.461c.92-2.216 2.343-3.964 4.27-5.242 1.943-1.295 4.414-1.943 7.414-1.943 2.728 0 5.105.571 7.134 1.713 2.028 1.142 3.596 2.812 4.704 5.011 1.125 2.199 1.688 4.884 1.688 8.054V256h-9.256v-23.574c0-2.642-.682-4.696-2.045-6.162-1.347-1.483-3.239-2.224-5.676-2.224-1.637 0-3.103.358-4.398 1.074-1.278.698-2.284 1.713-3.017 3.042-.716 1.33-1.074 2.941-1.074 4.833Zm36.367 37.738c-1.261 0-2.429-.102-3.503-.307-1.056-.187-1.9-.409-2.531-.664l2.148-7.211c1.346.393 2.548.58 3.605.563 1.057-.017 1.986-.349 2.787-.997.818-.631 1.508-1.688 2.071-3.171l.792-2.122-14.241-40.091h9.818l9.051 29.659h.409l9.077-29.659h9.844l-15.725 44.029c-.733 2.079-1.704 3.86-2.914 5.343a11.87 11.87 0 0 1-4.449 3.427c-1.739.801-3.818 1.201-6.239 1.201Zm32.852 0v-54h9.102v6.495h.537c.477-.955 1.15-1.969 2.02-3.043.869-1.091 2.045-2.02 3.528-2.787 1.483-.784 3.375-1.176 5.676-1.176 3.034 0 5.77.775 8.208 2.327 2.454 1.534 4.397 3.809 5.829 6.826 1.449 3 2.174 6.682 2.174 11.046 0 4.312-.708 7.977-2.123 10.994-1.414 3.017-3.34 5.318-5.778 6.903-2.437 1.586-5.199 2.378-8.284 2.378-2.25 0-4.117-.375-5.6-1.125-1.482-.75-2.676-1.653-3.579-2.71-.886-1.074-1.577-2.088-2.071-3.043h-.384v20.915h-9.255Zm9.076-34.363c0 2.539.358 4.764 1.074 6.673.733 1.909 1.782 3.4 3.145 4.474 1.381 1.057 3.051 1.586 5.012 1.586 2.045 0 3.758-.546 5.139-1.637 1.38-1.108 2.42-2.616 3.119-4.525.716-1.926 1.074-4.117 1.074-6.571 0-2.438-.35-4.603-1.048-6.495-.699-1.892-1.739-3.375-3.12-4.449-1.38-1.073-3.102-1.61-5.164-1.61-1.978 0-3.657.52-5.037 1.559-1.381 1.04-2.429 2.497-3.145 4.372-.699 1.875-1.049 4.083-1.049 6.623Zm50.43 20.403c-3.937 0-7.338-.818-10.202-2.455-2.846-1.653-5.037-3.988-6.571-7.005-1.534-3.034-2.301-6.605-2.301-10.713 0-4.04.767-7.585 2.301-10.637 1.551-3.068 3.716-5.454 6.495-7.159 2.778-1.721 6.042-2.582 9.792-2.582 2.421 0 4.705.392 6.853 1.176a15.489 15.489 0 0 1 5.727 3.58c1.67 1.619 2.983 3.681 3.937 6.187.955 2.489 1.432 5.455 1.432 8.898v2.838h-32.19v-6.239h23.318c-.017-1.772-.401-3.349-1.151-4.73a8.364 8.364 0 0 0-3.144-3.298c-1.33-.801-2.881-1.202-4.654-1.202-1.892 0-3.554.46-4.986 1.381a9.513 9.513 0 0 0-3.349 3.579c-.784 1.466-1.185 3.077-1.202 4.833v5.446c0 2.284.418 4.244 1.253 5.88.835 1.62 2.003 2.864 3.503 3.733 1.5.853 3.256 1.279 5.267 1.279 1.347 0 2.565-.188 3.656-.563a8.11 8.11 0 0 0 2.838-1.713c.801-.75 1.406-1.679 1.816-2.787l8.642.972c-.546 2.284-1.586 4.278-3.12 5.983-1.517 1.687-3.46 3-5.829 3.937-2.37.921-5.08 1.381-8.131 1.381Zm22.413-.767v-39.273h8.975v6.546h.409c.716-2.267 1.943-4.014 3.682-5.242 1.755-1.244 3.758-1.866 6.008-1.866.512 0 1.083.025 1.713.076.648.035 1.185.094 1.611.179v8.515c-.392-.137-1.014-.256-1.866-.358a17.084 17.084 0 0 0-2.429-.179c-1.688 0-3.205.366-4.551 1.099a8.04 8.04 0 0 0-3.145 2.992c-.767 1.278-1.151 2.752-1.151 4.423V256h-9.256Zm56.707-28.892-8.437.92a6.796 6.796 0 0 0-1.253-2.403c-.58-.75-1.364-1.355-2.353-1.815-.988-.461-2.198-.691-3.63-.691-1.926 0-3.546.418-4.858 1.253-1.296.835-1.935 1.918-1.918 3.247-.017 1.142.401 2.071 1.253 2.787.869.716 2.301 1.304 4.295 1.764l6.699 1.432c3.716.801 6.478 2.071 8.284 3.81 1.824 1.739 2.745 4.014 2.762 6.827-.017 2.471-.742 4.653-2.173 6.545-1.415 1.875-3.384 3.341-5.907 4.398-2.522 1.057-5.42 1.585-8.693 1.585-4.807 0-8.676-1.006-11.608-3.017-2.932-2.028-4.679-4.849-5.241-8.463l9.025-.869c.409 1.772 1.279 3.11 2.608 4.014 1.33.903 3.06 1.355 5.191 1.355 2.198 0 3.963-.452 5.292-1.355 1.347-.904 2.02-2.02 2.02-3.35 0-1.125-.435-2.054-1.304-2.787-.852-.733-2.182-1.295-3.989-1.687l-6.698-1.406c-3.768-.784-6.554-2.105-8.361-3.963-1.807-1.875-2.702-4.245-2.685-7.108-.017-2.421.639-4.517 1.969-6.29 1.346-1.79 3.213-3.171 5.599-4.142 2.404-.989 5.174-1.483 8.31-1.483 4.602 0 8.224.98 10.866 2.94 2.659 1.96 4.304 4.611 4.935 7.952Zm22.727 29.659c-3.836 0-7.16-.844-9.972-2.531-2.813-1.688-4.994-4.049-6.545-7.083-1.535-3.034-2.302-6.579-2.302-10.636 0-4.057.767-7.611 2.302-10.662 1.551-3.051 3.732-5.42 6.545-7.108 2.812-1.687 6.136-2.531 9.972-2.531 3.835 0 7.159.844 9.971 2.531 2.813 1.688 4.986 4.057 6.52 7.108 1.551 3.051 2.327 6.605 2.327 10.662s-.776 7.602-2.327 10.636c-1.534 3.034-3.707 5.395-6.52 7.083-2.812 1.687-6.136 2.531-9.971 2.531Zm.051-7.415c2.079 0 3.818-.571 5.216-1.713 1.397-1.159 2.437-2.71 3.119-4.653.699-1.943 1.048-4.108 1.048-6.495 0-2.403-.349-4.576-1.048-6.519-.682-1.961-1.722-3.52-3.119-4.679-1.398-1.159-3.137-1.739-5.216-1.739-2.131 0-3.904.58-5.318 1.739-1.398 1.159-2.446 2.718-3.145 4.679-.682 1.943-1.023 4.116-1.023 6.519 0 2.387.341 4.552 1.023 6.495.699 1.943 1.747 3.494 3.145 4.653 1.414 1.142 3.187 1.713 5.318 1.713Zm32.998-16.363V256h-9.255v-39.273h8.846v6.674h.46c.904-2.199 2.344-3.946 4.321-5.242 1.995-1.295 4.458-1.943 7.39-1.943 2.71 0 5.071.579 7.082 1.739 2.028 1.159 3.597 2.838 4.705 5.036 1.125 2.199 1.679 4.867 1.661 8.003V256h-9.255v-23.574c0-2.625-.682-4.679-2.046-6.162-1.346-1.483-3.213-2.224-5.599-2.224-1.619 0-3.06.358-4.321 1.074-1.244.698-2.225 1.713-2.94 3.042-.699 1.33-1.049 2.941-1.049 4.833ZM703.957 256v-39.273h9.255V256h-9.255Zm4.653-44.847c-1.466 0-2.727-.485-3.784-1.457-1.057-.989-1.585-2.173-1.585-3.554 0-1.398.528-2.582 1.585-3.554 1.057-.989 2.318-1.483 3.784-1.483 1.483 0 2.744.494 3.784 1.483 1.057.972 1.585 2.156 1.585 3.554 0 1.381-.528 2.565-1.585 3.554-1.04.972-2.301 1.457-3.784 1.457Zm28.371 45.614c-3.921 0-7.287-.861-10.1-2.582-2.795-1.722-4.951-4.1-6.468-7.134-1.5-3.051-2.25-6.562-2.25-10.534 0-3.989.767-7.508 2.301-10.56 1.534-3.068 3.699-5.454 6.494-7.159 2.812-1.721 6.136-2.582 9.972-2.582 3.187 0 6.008.588 8.463 1.764 2.471 1.159 4.44 2.804 5.906 4.935 1.466 2.113 2.301 4.585 2.506 7.415h-8.847c-.358-1.893-1.21-3.469-2.557-4.731-1.329-1.278-3.111-1.917-5.344-1.917-1.892 0-3.554.511-4.985 1.534-1.432 1.006-2.549 2.454-3.35 4.346-.784 1.893-1.176 4.16-1.176 6.802 0 2.676.392 4.977 1.176 6.903.784 1.909 1.884 3.384 3.298 4.423 1.432 1.023 3.111 1.534 5.037 1.534 1.364 0 2.583-.255 3.657-.767a7.35 7.35 0 0 0 2.735-2.275c.733-.989 1.236-2.191 1.509-3.605h8.847c-.222 2.778-1.04 5.241-2.455 7.389-1.415 2.131-3.341 3.801-5.778 5.011-2.438 1.193-5.302 1.79-8.591 1.79Z"/></svg>