<svg xmlns="http://www.w3.org/2000/svg" width="162" height="123" fill="none"><path fill="#ACE1FF" stroke="#8FA6C8" stroke-width="2" d="m37.666 52.975.284.525h25.1l.284-.525c1.958-3.63 4.387-6.363 7.295-8.19C73.533 42.957 76.969 42 81 42c4.027 0 7.335.956 10.176 2.78 2.852 1.83 5.293 4.573 7.515 8.238l.292.482h25.068l.283-.525c1.958-3.63 4.387-6.363 7.295-8.19C134.533 42.957 137.969 42 142 42c10.493 0 19 8.507 19 19s-8.507 19-19 19c-7.972 0-14.8-4.91-17.619-11.875l-.253-.625H98.872l-.253.625C95.8 75.09 88.972 80 81 80c-7.972 0-14.8-4.91-17.62-11.875l-.252-.625H37.872l-.253.625C34.8 75.09 27.972 80 20 80 9.507 80 1 71.493 1 61s8.507-19 19-19c4.031 0 7.467.958 10.371 2.784 2.908 1.828 5.337 4.561 7.295 8.19ZM69.973 9.932l.273.568H91.73l.28-.537C94.736 4.752 99.921 1 106.5 1c8.56 0 15.5 6.94 15.5 15.5 0 8.56-6.94 15.5-15.5 15.5-6.208 0-11.566-3.65-14.04-8.925l-.27-.575H69.81l-.27.575C67.066 28.35 61.708 32 55.5 32 46.94 32 40 25.06 40 16.5 40 7.94 46.94 1 55.5 1c6.62 0 11.768 3.286 14.473 8.932ZM69.944 100.864l.248.636h21.616l.248-.636C94.312 95.088 99.93 91 106.5 91c8.56 0 15.5 6.94 15.5 15.5 0 8.56-6.94 15.5-15.5 15.5-6.208 0-11.566-3.65-14.04-8.925l-.27-.575H69.81l-.27.575C67.066 118.35 61.708 122 55.5 122c-8.56 0-15.5-6.94-15.5-15.5C40 97.94 46.94 91 55.5 91c6.57 0 12.188 4.088 14.444 9.864Z"/></svg>
