<svg xmlns="http://www.w3.org/2000/svg" width="182" height="182" fill="none"><path fill="#8D65FF" stroke="#7F5FC4" stroke-width="2" d="m47.625 82.974.284.526H72.985l.283-.526c1.957-3.63 4.383-6.362 7.288-8.19C83.456 72.958 86.888 72 90.915 72c4.022 0 7.326.956 10.164 2.779 2.849 1.83 5.288 4.574 7.507 8.239l.292.482H133.921l.283-.526c1.956-3.63 4.383-6.362 7.288-8.19 2.9-1.826 6.332-2.784 10.359-2.784 10.48 0 18.979 8.506 18.979 19s-8.499 19-18.979 19c-7.963 0-14.783-4.91-17.6-11.875l-.253-.625h-25.231l-.253.625C105.698 105.09 98.878 110 90.914 110c-7.962 0-14.782-4.91-17.599-11.875l-.253-.625H47.831l-.252.625C44.762 105.09 37.942 110 29.979 110 19.499 110 11 101.494 11 91s8.498-19 18.979-19c4.026 0 7.459.958 10.36 2.784 2.904 1.828 5.33 4.56 7.286 8.19ZM79.899 39.932l.272.568H101.635l.28-.537C104.637 34.75 109.817 31 116.388 31c8.55 0 15.483 6.939 15.483 15.5S124.938 62 116.388 62c-6.2 0-11.552-3.65-14.025-8.924l-.269-.576H79.736l-.27.576C76.994 58.35 71.642 62 65.442 62c-8.55 0-15.483-6.939-15.483-15.5S56.892 31 65.442 31c6.61 0 11.754 3.286 14.457 8.932ZM79.87 130.863l.247.637H101.712l.249-.637c2.253-5.775 7.865-9.863 14.427-9.863 8.55 0 15.483 6.939 15.483 15.5s-6.933 15.5-15.483 15.5c-6.2 0-11.552-3.649-14.025-8.924l-.269-.576H79.736l-.27.576C76.994 148.351 71.642 152 65.442 152c-8.55 0-15.483-6.939-15.483-15.5S56.892 121 65.442 121c6.562 0 12.174 4.088 14.427 9.863Z"/></svg>
